<?xml version="1.0" encoding="UTF-8"?><svg xmlns="http://www.w3.org/2000/svg" width="44" viewBox="0 0 44 55.15"><defs><style>.d{fill:#eecc2d;}</style></defs><g id="a"/><g id="b"><g id="c"><g><circle class="d" cx="22.01" cy="22.26" r="11.43"/><path d="M21.22,.01C10.26,.4,1.16,8.95,.1,19.86c-.21,2.18-.09,4.3,.29,6.32H.4s.03,.24,.15,.69c.34,1.52,.85,2.99,1.48,4.36,2.2,5.22,7.3,13.96,18.75,23.47,.7,.59,1.73,.59,2.44,0,11.44-9.5,16.54-18.24,18.76-23.49,.64-1.38,1.14-2.84,1.48-4.36,.1-.44,.15-.69,.15-.69h0c.26-1.36,.4-2.75,.4-4.17C44,9.58,33.72-.43,21.22,.01Zm.78,32.93c-5.9,0-10.69-4.78-10.69-10.69s4.78-10.69,10.69-10.69,10.69,4.78,10.69,10.69-4.78,10.69-10.69,10.69Z"/></g></g></g></svg>