<?xml version="1.0" encoding="UTF-8"?><svg xmlns="http://www.w3.org/2000/svg" width="26" viewBox="0 0 26 32.59"><defs><style>.d{fill:#fff;}</style></defs><g id="a"/><g id="b"><g id="c"><g><circle class="d" cx="13" cy="13.15" r="6.76"/><path d="M12.54,0C6.06,.24,.68,5.29,.06,11.73c-.13,1.29-.05,2.54,.17,3.74H.24s.02,.14,.09,.41c.2,.9,.5,1.76,.88,2.58,1.3,3.09,4.32,8.25,11.08,13.87,.41,.35,1.02,.35,1.44,0,6.76-5.61,9.78-10.78,11.08-13.88,.38-.82,.67-1.68,.88-2.58,.06-.26,.09-.41,.09-.41h0c.15-.8,.23-1.62,.23-2.47C26,5.66,19.93-.25,12.54,0Zm.46,19.46c-3.49,0-6.31-2.83-6.31-6.31s2.83-6.31,6.31-6.31,6.31,2.83,6.31,6.31-2.83,6.31-6.31,6.31Z"/></g></g></g></svg>